# xmcd
#
# Track frame offsets:
#	150
#	15173
#	26556
#	45685
#	64694
#	111988
#	122924
#	138664
#	153099
#	164758
#	196883
#	206931
#	216829
#	231830
#	252066
#	271308
#	309282
#	333913
#	344184
#
# Disc length: 4757 seconds
# Revision: 1
# Processed by: cddbd v1.5.2PL0 Copyright (c) Steve Scherf et al.
# Submitted via: dBpowerAMP V12.0
#
DISCID=1a129313
DTITLE=Various Artist - FAT Favorites 4 ( Disc 4 of 27)
DYEAR=1976
DGENRE=Country
TTITLE0=James Talley - Are They Gonna Make Us Outlaws Again
TTITLE1=David Allen Coe - I Love Robbing Banks
TTITLE2=Steven Fromholz - Late Night Neon Shadows
TTITLE3=Free Beer - Coupe de Ville
TTITLE4=Steven Fromholz - Texas Trilogy
TTITLE5=Richard Dobson - Hard by the Highway
TTITLE6=Sir Douglas Quintet - Down on the Border
TTITLE7=Cache Valley Drifters - The Wild West Is Where I Want to Be
TTITLE8=Cowboy Jazz - That's What I Like About the West
TTITLE9=National Lampoon - The Immigrants
TTITLE10=Buck Owens - California Okie
TTITLE11=HankT hompson - Dear Okie
TTITLE12=Larry Hosford - Salinas
TTITLE13=David Bromberg - Spanish Johnny
TTITLE14=Tim Keller - Spanish Johnny
TTITLE15=The Rowans - Joaquin Murrieta
TTITLE16=Flaco Jimenez - Ry Cooder - Viva Sequin - Do Re Me
TTITLE17=Doug Sahm - Chicano
TTITLE18=Freddy Fender - Rancho Grande
EXTD=
EXTT0=
EXTT1=
EXTT2=
EXTT3=
EXTT4=
EXTT5=
EXTT6=
EXTT7=
EXTT8=
EXTT9=
EXTT10=
EXTT11=
EXTT12=
EXTT13=
EXTT14=
EXTT15=
EXTT16=
EXTT17=
EXTT18=
PLAYORDER=
